<svg width="40" height="40" viewBox="0 0 40 40" fill="none" xmlns="http://www.w3.org/2000/svg"><rect width="40" height="40" rx="20" fill="#FF3E79"/><path fill-rule="evenodd" clip-rule="evenodd" d="M13.793 12.257a1 1 0 0 0-1.414 0l-.122.122a1 1 0 0 0 0 1.415L18.464 20l-6.207 6.206a1 1 0 0 0 0 1.415l.122.122a1 1 0 0 0 1.415 0L20 21.536l6.206 6.207a1 1 0 0 0 1.415 0l.122-.122a1 1 0 0 0 0-1.415L21.536 20l6.207-6.207a1 1 0 0 0 0-1.414l-.122-.122a1 1 0 0 0-1.415 0L20 18.464l-6.207-6.207Z" fill="#fff"/></svg>