<svg width="105" height="56" viewBox="0 0 105 56" fill="none" xmlns="http://www.w3.org/2000/svg"><path fill-rule="evenodd" clip-rule="evenodd" d="M39.111.778a1 1 0 0 0-1 1V6.5a1 1 0 0 0 1 1h38.994c10.85 0 19.371 8.354 19.371 19.167 0 .306.248.554.554.554h5.638a.554.554 0 0 0 .554-.554c0-14.452-11.616-25.89-26.117-25.89H39.11ZM7.614 27.692a.47.47 0 0 0-.47-.47H1.248a.47.47 0 0 0-.47.47c0 14.624 10.954 26.699 25.118 27.489l45.438.04a1 1 0 0 0 1-1v-5.05a1 1 0 0 0-1-1H27.457c-10.968-.03-19.843-9.153-19.843-20.48Z" fill="#6B7B84" stroke="#80949F" stroke-width=".5"/><path fill-rule="evenodd" clip-rule="evenodd" d="M30.151 42.778c2.935 0 5.38-.57 7.793-1.743l.167-.156v-8.395l-.903 1.157c-1.739 1.9-4.073 2.945-6.714 2.945-4.92 0-9.861-3.18-9.861-9.257 0-4.592 3.408-9.473 9.688-9.473 1.253 0 4.3.296 6.882 3.038l.908 1.119v-8.356l-.16-.158c-2.46-1.233-4.968-1.833-7.83-1.833-4.892 0-8.712 1.289-11.753 3.936-1.929 1.66-5.146 5.379-5.146 11.64 0 4.63 1.649 8.245 5.17 11.38 3.278 2.874 6.911 4.156 11.76 4.156Z" fill="#6B7B84"/><path d="M30.151 42.778c2.935 0 5.38-.57 7.793-1.743l.167-.156v-8.395l-.903 1.157c-1.739 1.9-4.073 2.945-6.714 2.945-4.92 0-9.861-3.18-9.861-9.257 0-4.592 3.408-9.473 9.688-9.473 1.253 0 4.3.296 6.882 3.038l.908 1.119v-8.356l-.16-.158c-2.46-1.233-4.968-1.833-7.83-1.833-4.892 0-8.712 1.289-11.753 3.936-1.929 1.66-5.146 5.379-5.146 11.64 0 4.63 1.649 8.245 5.17 11.38 3.278 2.874 6.911 4.156 11.76 4.156" stroke="#80949F" stroke-width=".5"/><path fill-rule="evenodd" clip-rule="evenodd" d="M51.334 18.666h1.461c1.341 0 2.87.074 4.026.862.565.404 1.513 1.338 1.513 3.034 0 1.253-.555 2.378-1.47 3.079-1.173.852-2.567.803-3.688.803h-1.843v-7.777Zm3.284 13.425c3.462 0 6.172-1 8.054-2.88 2.316-2.31 2.662-5.489 2.662-7.164 0-1.793-.425-5.29-3.276-7.822-2.336-2.047-4.828-2.559-8.345-2.559h-9.38v31.112h7.135V32.09h3.15Z" fill="#6B7B84"/><path d="M51.334 18.666v-.25h-.25v.25h.25Zm5.487.862.145-.203-.004-.003-.141.206Zm.043 6.113.147.202.005-.004-.152-.198Zm-5.53.803h-.25v.25h.25v-.25Zm11.338 2.767-.176-.177.176.177Zm-.614-14.986.166-.187-.166.187Zm-17.724-2.559v-.25h-.25v.25h.25Zm0 31.112h-.25v.25h.25v-.25Zm7.134 0v.25h.25v-.25h-.25Zm0-10.687v-.25h-.25v.25h.25Zm-.135-13.175h1.462v-.5h-1.462v.5Zm1.462 0c1.347 0 2.8.079 3.885.819l.282-.413c-1.228-.838-2.832-.905-4.167-.905v.5Zm3.88.816c.526.375 1.409 1.242 1.409 2.83h.5c0-1.805-1.013-2.806-1.618-3.237l-.29.407Zm1.409 2.83c0 1.18-.521 2.229-1.372 2.88l.304.397c.98-.75 1.568-1.95 1.568-3.277h-.5Zm-1.366 2.877c-1.096.795-2.401.755-3.542.755v.5c1.1 0 2.584.057 3.835-.85l-.293-.405Zm-3.542.755h-1.843v.5h1.843v-.5Zm-1.593.25v-7.777h-.5v7.777h.5Zm3.035 5.897c3.51 0 6.291-1.014 8.231-2.954l-.353-.353c-1.824 1.823-4.464 2.807-7.878 2.807v.5Zm8.231-2.954c2.386-2.381 2.735-5.643 2.735-7.34h-.5c0 1.654-.344 4.747-2.588 6.987l.353.354Zm2.735-7.34c0-1.821-.43-5.407-3.36-8.009l-.332.374c2.771 2.462 3.191 5.87 3.191 7.635h.5Zm-3.36-8.01c-2.402-2.104-4.967-2.62-8.51-2.62v.5c3.488 0 5.909.507 8.18 2.496l.33-.376Zm-8.51-2.62h-9.38v.5h9.38v-.5Zm-9.63.25v31.11h.5v-31.11h-.5Zm.25 31.36h7.134v-.5h-7.135v.5Zm7.384-.25V32.092h-.5v10.687h.5Zm-.25-10.436h3.15v-.5h-3.15v.5Z" fill="#80949F"/><path fill-rule="evenodd" clip-rule="evenodd" d="M86.735 26.36c-1.551-1.375-3.716-2.172-6.174-2.998-1.75-.61-2.715-.945-3.358-1.531-.508-.431-.734-.899-.734-1.517 0-1.355.92-2.802 3.504-2.802 1.755 0 3.225.75 4.37 2.23l.453.588 3.768-4.795-.344-.344c-2.304-2.306-5.34-3.525-8.78-3.525-6.941 0-10.049 4.516-10.049 8.991 0 2.402.857 4.339 2.54 5.755 1.508 1.292 3.347 2.016 5.11 2.607l.2.066c1.565.517 3.185 1.053 4.152 1.919.673.618.973 1.29.973 2.178 0 2.036-1.603 3.404-3.99 3.404-1.885 0-4.369-.924-5.683-3.518l-.344-.68-4.683 4.335.277.39c1.494 2.116 4.865 5.665 10.656 5.665 6.385 0 10.845-4.106 10.845-9.983 0-3.362-1.475-5.357-2.709-6.436Z" fill="#6B7B84"/><path d="M86.735 26.36c-1.551-1.375-3.716-2.172-6.174-2.998-1.75-.61-2.715-.945-3.358-1.531-.508-.431-.734-.899-.734-1.517 0-1.355.92-2.802 3.504-2.802 1.755 0 3.225.75 4.37 2.23l.453.588 3.768-4.795-.344-.344c-2.304-2.306-5.34-3.525-8.78-3.525-6.941 0-10.049 4.516-10.049 8.991 0 2.402.857 4.339 2.54 5.755 1.508 1.292 3.347 2.016 5.11 2.607l.2.066c1.565.517 3.185 1.053 4.152 1.919.673.618.973 1.29.973 2.178 0 2.036-1.603 3.404-3.99 3.404-1.885 0-4.369-.924-5.683-3.518l-.344-.68-4.683 4.335.277.39c1.494 2.116 4.865 5.665 10.656 5.665 6.385 0 10.845-4.106 10.845-9.983 0-3.362-1.475-5.357-2.709-6.436" stroke="#80949F" stroke-width=".5"/></svg>