<svg width="105" height="56" viewBox="0 0 105 56" fill="none" xmlns="http://www.w3.org/2000/svg">
<path fill-rule="evenodd" clip-rule="evenodd" d="M39.1113 0.777832C38.559 0.777832 38.1113 1.22555 38.1113 1.77783V6.501C38.1113 7.05328 38.559 7.501 39.1113 7.501H78.1045C88.9548 7.501 97.4764 15.8545 97.4764 26.6683C97.4764 26.9742 97.7244 27.2223 98.0304 27.2223H103.668C103.974 27.2223 104.222 26.9742 104.222 26.6683C104.222 12.2155 92.606 0.777832 78.1045 0.777832H39.1113Z" fill="#6B7B84" stroke="#80949F" stroke-width="0.5"/>
<path fill-rule="evenodd" clip-rule="evenodd" d="M7.61435 27.6918C7.61435 27.4324 7.4041 27.2222 7.14475 27.2222H1.24743C0.988078 27.2222 0.777832 27.4324 0.777832 27.6918C0.777832 42.3161 11.7313 54.3905 25.895 55.1807L71.3325 55.2213C71.8851 55.2218 72.3334 54.7739 72.3334 54.2213V49.1716C72.3334 48.6193 71.8857 48.1716 71.3334 48.1716H27.4569C16.4895 48.1413 7.61435 39.0176 7.61435 27.6918Z" fill="#6B7B84" stroke="#80949F" stroke-width="0.5"/>
<path fill-rule="evenodd" clip-rule="evenodd" d="M30.1515 42.7776C33.0859 42.7776 35.5302 42.2075 37.9444 41.0345L38.1111 40.8785V32.4845L37.2077 33.641C35.4693 35.5405 33.1348 36.5861 30.4936 36.5861C25.574 36.5861 20.6329 33.4063 20.6329 27.3291C20.6329 22.7366 24.0407 17.8557 30.3206 17.8557C31.5736 17.8557 34.621 18.152 37.2033 20.8943L38.1111 22.0126V13.6566L37.9517 13.4986C35.4918 12.2658 32.983 11.6665 30.1217 11.6665C25.2285 11.6665 21.4092 12.9547 18.3683 15.6025C16.4393 17.2619 13.2222 20.9806 13.2222 27.2417C13.2222 31.8712 14.8706 35.4867 18.3929 38.6226C21.6697 41.496 25.303 42.7776 30.1515 42.7776Z" fill="#6B7B84"/>
<path d="M30.1515 42.7776C33.0859 42.7776 35.5302 42.2075 37.9444 41.0345L38.1111 40.8785V32.4845L37.2077 33.641C35.4693 35.5405 33.1348 36.5861 30.4936 36.5861C25.574 36.5861 20.6329 33.4063 20.6329 27.3291C20.6329 22.7366 24.0407 17.8557 30.3206 17.8557C31.5736 17.8557 34.621 18.152 37.2033 20.8943L38.1111 22.0126V13.6566L37.9517 13.4986C35.4918 12.2658 32.983 11.6665 30.1217 11.6665C25.2285 11.6665 21.4092 12.9547 18.3683 15.6025C16.4393 17.2619 13.2222 20.9806 13.2222 27.2417C13.2222 31.8712 14.8706 35.4867 18.3929 38.6226C21.6697 41.496 25.303 42.7776 30.1515 42.7776" stroke="#80949F" stroke-width="0.5"/>
<path fill-rule="evenodd" clip-rule="evenodd" d="M51.3335 18.6665H52.7953C54.1361 18.6665 55.6644 18.7397 56.821 19.5281C57.3858 19.9315 58.3335 20.8655 58.3335 22.5619C58.3335 23.8155 57.7795 24.9396 56.8644 25.641C55.6912 26.4926 54.2967 26.4438 53.1761 26.4438H51.3335V18.6665ZM54.6182 32.0906C58.0804 32.0906 60.7904 31.0919 62.6724 29.2106C64.9875 26.9003 65.3335 23.7222 65.3335 22.0467C65.3335 20.2539 64.9085 16.7571 62.0584 14.2252C59.7222 12.1781 57.2295 11.6665 53.7133 11.6665H44.3335V42.7776H51.4677V32.0906H54.6182Z" fill="#6B7B84"/>
<path d="M51.3335 18.6665V18.4165H51.0835V18.6665H51.3335ZM56.821 19.5281L56.9664 19.3246L56.9618 19.3215L56.821 19.5281ZM56.8644 25.641L57.0114 25.8434L57.0165 25.8394L56.8644 25.641ZM51.3335 26.4438H51.0835V26.6938H51.3335V26.4438ZM62.6724 29.2106L62.4958 29.0336L62.4957 29.0338L62.6724 29.2106ZM62.0584 14.2252L62.2245 14.0383L62.2232 14.0372L62.0584 14.2252ZM44.3335 11.6665V11.4165H44.0835V11.6665H44.3335ZM44.3335 42.7776H44.0835V43.0276H44.3335V42.7776ZM51.4677 42.7776V43.0276H51.7177V42.7776H51.4677ZM51.4677 32.0906V31.8406H51.2177V32.0906H51.4677ZM51.3335 18.9165H52.7953V18.4165H51.3335V18.9165ZM52.7953 18.9165C54.1418 18.9165 55.5949 18.9949 56.6802 19.7347L56.9618 19.3215C55.7338 18.4844 54.1304 18.4165 52.7953 18.4165V18.9165ZM56.6757 19.7315C57.201 20.1067 58.0835 20.9738 58.0835 22.5619H58.5835C58.5835 20.7572 57.5707 19.7563 56.9664 19.3246L56.6757 19.7315ZM58.0835 22.5619C58.0835 23.7415 57.5628 24.7907 56.7124 25.4426L57.0165 25.8394C57.9962 25.0885 58.5835 23.8896 58.5835 22.5619H58.0835ZM56.7176 25.4387C55.622 26.2339 54.317 26.1938 53.1761 26.1938V26.6938C54.2763 26.6938 55.7604 26.7513 57.0113 25.8433L56.7176 25.4387ZM53.1761 26.1938H51.3335V26.6938H53.1761V26.1938ZM51.5835 26.4438V18.6665H51.0835V26.4438H51.5835ZM54.6182 32.3406C58.1289 32.3406 60.909 31.3269 62.8492 29.3874L62.4957 29.0338C60.6718 30.857 58.0319 31.8406 54.6182 31.8406V32.3406ZM62.849 29.3875C65.2354 27.006 65.5835 23.7436 65.5835 22.0467H65.0835C65.0835 23.7008 64.7395 26.7945 62.4958 29.0336L62.849 29.3875ZM65.5835 22.0467C65.5835 20.2258 65.1535 16.6403 62.2245 14.0383L61.8924 14.4121C64.6635 16.8739 65.0835 20.282 65.0835 22.0467H65.5835ZM62.2232 14.0372C59.8215 11.9326 57.257 11.4165 53.7133 11.4165V11.9165C57.202 11.9165 59.6229 12.4235 61.8937 14.4132L62.2232 14.0372ZM53.7133 11.4165H44.3335V11.9165H53.7133V11.4165ZM44.0835 11.6665V42.7776H44.5835V11.6665H44.0835ZM44.3335 43.0276H51.4677V42.5276H44.3335V43.0276ZM51.7177 42.7776V32.0906H51.2177V42.7776H51.7177ZM51.4677 32.3406H54.6182V31.8406H51.4677V32.3406Z" fill="#80949F"/>
<path fill-rule="evenodd" clip-rule="evenodd" d="M86.735 26.3593C85.1839 24.9851 83.0188 24.1884 80.5615 23.3621C78.8106 22.7529 77.8459 22.4172 77.2027 21.8308C76.6951 21.3999 76.4688 20.9321 76.4688 20.3138C76.4688 18.9595 77.389 17.5122 79.9726 17.5122C81.7283 17.5122 83.1983 18.2629 84.3421 19.7426L84.7962 20.3301L88.5636 15.5346L88.2201 15.1906C85.916 12.8848 82.8798 11.6665 79.4396 11.6665C72.4985 11.6665 69.3915 16.1821 69.3915 20.6574C69.3915 23.0589 70.248 24.9957 71.9318 26.4116C73.4393 27.7037 75.2777 28.4277 77.0411 29.0186L77.2404 29.0847C78.8064 29.6023 80.4259 30.138 81.3932 31.0037C82.0662 31.622 82.3661 32.2939 82.3661 33.1822C82.3661 35.218 80.7629 36.5861 78.3768 36.5861C76.4906 36.5861 74.007 35.6616 72.693 33.0675L72.3493 32.3879L67.6665 36.7226L67.9427 37.1132C69.4367 39.2287 72.808 42.7776 78.5989 42.7776C84.9844 42.7776 89.4443 38.6724 89.4443 32.7948C89.4443 29.433 87.9694 27.4377 86.735 26.3593Z" fill="#6B7B84"/>
<path d="M86.735 26.3593C85.1839 24.9851 83.0188 24.1884 80.5615 23.3621C78.8106 22.7529 77.8459 22.4172 77.2027 21.8308C76.6951 21.3999 76.4688 20.9321 76.4688 20.3138C76.4688 18.9595 77.389 17.5122 79.9726 17.5122C81.7283 17.5122 83.1983 18.2629 84.3421 19.7426L84.7962 20.3301L88.5636 15.5346L88.2201 15.1906C85.916 12.8848 82.8798 11.6665 79.4396 11.6665C72.4985 11.6665 69.3915 16.1821 69.3915 20.6574C69.3915 23.0589 70.248 24.9957 71.9318 26.4116C73.4393 27.7037 75.2777 28.4277 77.0411 29.0186L77.2404 29.0847C78.8064 29.6023 80.4259 30.138 81.3932 31.0037C82.0662 31.622 82.3661 32.2939 82.3661 33.1822C82.3661 35.218 80.7629 36.5861 78.3768 36.5861C76.4906 36.5861 74.007 35.6616 72.693 33.0675L72.3493 32.3879L67.6665 36.7226L67.9427 37.1132C69.4367 39.2287 72.808 42.7776 78.5989 42.7776C84.9844 42.7776 89.4443 38.6724 89.4443 32.7948C89.4443 29.433 87.9694 27.4377 86.735 26.3593" stroke="#80949F" stroke-width="0.5"/>
</svg>
