<svg width="8" height="11" viewBox="0 0 8 11" fill="none" xmlns="http://www.w3.org/2000/svg">
<path fill-rule="evenodd" clip-rule="evenodd" d="M1.49992 10.4999L3.99992 7.99992L6.49992 10.4999C6.77607 10.7761 7.22378 10.7761 7.49992 10.4999C7.77607 10.2238 7.77607 9.77607 7.49992 9.49992L4.70703 6.70703C4.31651 6.31651 3.68334 6.31651 3.29282 6.70703L0.499924 9.49993C0.223781 9.77607 0.223781 10.2238 0.499924 10.4999C0.776066 10.7761 1.22378 10.7761 1.49992 10.4999ZM1.49992 4.49992L3.99992 1.99992L6.49992 4.49992C6.77607 4.77607 7.22378 4.77607 7.49992 4.49992C7.77607 4.22378 7.77607 3.77607 7.49992 3.49992L4.70703 0.707032C4.31651 0.316508 3.68334 0.316507 3.29282 0.707031L0.499924 3.49993C0.223781 3.77607 0.223781 4.22378 0.499924 4.49993C0.776066 4.77607 1.22378 4.77607 1.49992 4.49992Z" fill="#41F6D7"/>
</svg>
